<svg width="1280" height="703" viewBox="0 0 1280 703" fill="none" xmlns="http://www.w3.org/2000/svg">
<g clip-path="url(#clip0_1_524)">
<rect width="1280" height="703" fill="white"/>
<path fill-rule="evenodd" clip-rule="evenodd" d="M1387.54 520.928V893.817C1366.68 891.1 1345.97 884.582 1327.03 875.582C1249 838.464 1193.41 762.771 1168.66 679.999C1160.23 651.646 1154.88 622.07 1141.8 595.498C1125.87 563.202 1099.53 537.473 1075.77 510.383C1052.01 483.292 1029.65 452.548 1024.78 416.834C1019.9 381.119 1038.23 339.968 1072.95 330.218C1111.67 319.345 1149.92 350.234 1171.85 383.93C1193.83 417.629 1208.97 457.515 1240.98 481.885C1281.66 512.868 1337.06 510.054 1387.54 520.928Z" fill="#53432C"/>
<path fill-rule="evenodd" clip-rule="evenodd" d="M285.041 -9.88222C295.079 27.1549 290.112 68.0316 271.491 101.585C252.87 135.139 220.812 160.983 184.072 172.057C160.828 179.067 135.788 180.439 113.861 190.866C77.0849 208.356 56.4119 247.211 28.4176 276.789C-31.5779 340.176 -133.616 359.097 -212.351 321.441C-268.91 294.394 -310.544 243.304 -365.03 212.292C-388.846 198.737 -414.929 189.185 -441.863 184.157C-459.833 180.804 -478.37 179.393 -495.379 172.702C-521.158 162.563 -541.04 141.125 -555.696 117.615C-578.734 80.6551 -590.783 34.0054 -575.997 -6.95798C-574.343 -11.5444 -566.902 -15.7068 -566.156 -10.8914L285.041 -9.88222Z" fill="#4C523B"/>
</g>
<defs>
<clipPath id="clip0_1_524">
<rect width="1280" height="703" fill="white"/>
</clipPath>
</defs>
</svg>
