<svg width="291" height="341" viewBox="0 0 291 341" fill="none" xmlns="http://www.w3.org/2000/svg">
<path fill-rule="evenodd" clip-rule="evenodd" d="M285.041 -9.88221C295.079 27.1549 290.112 68.0316 271.491 101.585C252.87 135.139 220.812 160.983 184.072 172.057C160.828 179.067 135.788 180.439 113.861 190.866C77.0849 208.356 56.4119 247.211 28.4176 276.789C-31.5779 340.176 -133.616 359.097 -212.351 321.441C-268.91 294.394 -310.544 243.304 -365.03 212.292C-388.846 198.737 -414.929 189.185 -441.863 184.157C-459.833 180.804 -478.37 179.393 -495.379 172.702C-521.158 162.563 -541.04 141.125 -555.696 117.615C-578.734 80.6551 -590.783 34.0054 -575.997 -6.95799C-574.343 -11.5444 -566.902 -15.7068 -566.156 -10.8914L285.041 -9.88221Z" fill="#4C523B"/>
</svg>
