<svg width="617" height="107" viewBox="0 0 617 107" fill="none" xmlns="http://www.w3.org/2000/svg">
<path d="M235.781 0.594998H254.921C260.311 0.594998 264.362 1.695 267.076 3.895C269.826 6.05833 271.201 9.59667 271.201 14.51V30.515C271.201 30.9183 271.054 31.2667 270.761 31.56C270.467 31.8533 270.119 32 269.716 32H260.421C260.017 32 259.669 31.8717 259.376 31.615C259.082 31.3217 258.936 30.9733 258.936 30.57V14.345C258.936 11.595 257.579 10.22 254.866 10.22H251.016V30.515C251.016 30.9183 250.869 31.2667 250.576 31.56C250.282 31.8533 249.934 32 249.531 32H235.781C235.377 32 235.029 31.8533 234.736 31.56C234.442 31.2667 234.296 30.9183 234.296 30.515V24.41C234.296 24.0067 234.442 23.6583 234.736 23.365C235.029 23.0717 235.377 22.925 235.781 22.925H238.751V10.22H235.781C235.377 10.22 235.029 10.0733 234.736 9.78C234.442 9.48667 234.296 9.13833 234.296 8.735V2.08C234.296 1.67667 234.442 1.32833 234.736 1.035C235.029 0.741665 235.377 0.594998 235.781 0.594998ZM289.796 2.08V17.315C289.796 17.7183 289.649 18.0667 289.356 18.36C289.063 18.6533 288.714 18.8 288.311 18.8H278.466C278.063 18.8 277.714 18.6533 277.421 18.36C277.128 18.0667 276.981 17.7183 276.981 17.315V2.08C276.981 1.67667 277.128 1.32833 277.421 1.035C277.714 0.741665 278.063 0.594998 278.466 0.594998H288.311C288.714 0.594998 289.063 0.741665 289.356 1.035C289.649 1.32833 289.796 1.67667 289.796 2.08ZM296.257 0.594998H304.067C309.64 0.594998 313.839 1.64 316.662 3.73C319.485 5.82 320.897 9.41333 320.897 14.51V22.375H322.712C323.115 22.375 323.464 22.5217 323.757 22.815C324.05 23.1083 324.197 23.4567 324.197 23.86V30.515C324.197 30.9183 324.05 31.2667 323.757 31.56C323.464 31.8533 323.115 32 322.712 32H295.707C295.304 32 294.955 31.8533 294.662 31.56C294.369 31.2667 294.222 30.9183 294.222 30.515V23.86C294.222 23.4567 294.369 23.1083 294.662 22.815C294.955 22.5217 295.304 22.375 295.707 22.375H308.082V14.345C308.082 11.595 306.725 10.22 304.012 10.22H296.257C295.854 10.22 295.505 10.0733 295.212 9.78C294.919 9.48667 294.772 9.13833 294.772 8.735V2.08C294.772 1.67667 294.919 1.32833 295.212 1.035C295.505 0.741665 295.854 0.594998 296.257 0.594998ZM328.98 0.594998H338.22C343.72 0.594998 347.808 1.64 350.485 3.73C353.162 5.78333 354.5 9.37667 354.5 14.51V30.515C354.5 30.9183 354.353 31.2667 354.06 31.56C353.767 31.8533 353.418 32 353.015 32H343.72C343.317 32 342.968 31.8717 342.675 31.615C342.382 31.3217 342.235 30.9733 342.235 30.57V14.345C342.235 11.595 340.878 10.22 338.165 10.22H328.98C328.577 10.22 328.228 10.0733 327.935 9.78C327.642 9.48667 327.495 9.13833 327.495 8.735V2.08C327.495 1.67667 327.642 1.32833 327.935 1.035C328.228 0.741665 328.577 0.594998 328.98 0.594998ZM381.499 18.25V10.22H361.754C361.351 10.22 361.003 10.0733 360.709 9.78C360.416 9.48667 360.269 9.13833 360.269 8.735V2.08C360.269 1.67667 360.416 1.32833 360.709 1.035C361.003 0.741665 361.351 0.594998 361.754 0.594998H392.224C392.628 0.594998 392.976 0.741665 393.269 1.035C393.563 1.32833 393.709 1.67667 393.709 2.08V18.085C393.709 22.4483 392.353 25.95 389.639 28.59C386.963 31.23 383.094 32.55 378.034 32.55H377.319C376.916 32.55 376.568 32.4033 376.274 32.11C375.981 31.8167 375.834 31.4683 375.834 31.065V23.86C375.834 23.4567 375.981 23.1083 376.274 22.815C376.568 22.5217 376.916 22.375 377.319 22.375H377.979C379.006 22.375 379.849 22.045 380.509 21.385C381.169 20.725 381.499 19.68 381.499 18.25ZM372.204 13.905V41.02C372.204 41.4233 372.058 41.7717 371.764 42.065C371.471 42.3583 371.123 42.505 370.719 42.505H361.754C361.351 42.505 361.003 42.3583 360.709 42.065C360.416 41.7717 360.269 41.4233 360.269 41.02V13.905C360.269 13.5017 360.416 13.1533 360.709 12.86C361.003 12.5667 361.351 12.42 361.754 12.42H370.719C371.123 12.42 371.471 12.5667 371.764 12.86C372.058 13.1533 372.204 13.5017 372.204 13.905ZM417.478 0.594998H436.618C442.008 0.594998 446.06 1.695 448.773 3.895C451.523 6.05833 452.898 9.59667 452.898 14.51V30.515C452.898 30.9183 452.752 31.2667 452.458 31.56C452.165 31.8533 451.817 32 451.413 32H442.118C441.715 32 441.367 31.8717 441.073 31.615C440.78 31.3217 440.633 30.9733 440.633 30.57V14.345C440.633 11.595 439.277 10.22 436.563 10.22H432.713V30.515C432.713 30.9183 432.567 31.2667 432.273 31.56C431.98 31.8533 431.632 32 431.228 32H417.478C417.075 32 416.727 31.8533 416.433 31.56C416.14 31.2667 415.993 30.9183 415.993 30.515V24.41C415.993 24.0067 416.14 23.6583 416.433 23.365C416.727 23.0717 417.075 22.925 417.478 22.925H420.448V10.22H417.478C417.075 10.22 416.727 10.0733 416.433 9.78C416.14 9.48667 415.993 9.13833 415.993 8.735V2.08C415.993 1.67667 416.14 1.32833 416.433 1.035C416.727 0.741665 417.075 0.594998 417.478 0.594998ZM472.319 2.08V30.515C472.319 30.9183 472.172 31.2667 471.879 31.56C471.585 31.8533 471.237 32 470.834 32H460.989C460.585 32 460.237 31.8533 459.944 31.56C459.65 31.2667 459.504 30.9183 459.504 30.515V2.08C459.504 1.67667 459.65 1.32833 459.944 1.035C460.237 0.741665 460.585 0.594998 460.989 0.594998H470.834C471.237 0.594998 471.585 0.741665 471.879 1.035C472.172 1.32833 472.319 1.67667 472.319 2.08ZM479.016 0.594998H488.256C493.756 0.594998 497.844 1.64 500.521 3.73C503.198 5.78333 504.536 9.37667 504.536 14.51V30.515C504.536 30.9183 504.389 31.2667 504.096 31.56C503.803 31.8533 503.454 32 503.051 32H493.756C493.353 32 493.004 31.8717 492.711 31.615C492.418 31.3217 492.271 30.9733 492.271 30.57V14.345C492.271 11.595 490.914 10.22 488.201 10.22H479.016C478.613 10.22 478.264 10.0733 477.971 9.78C477.678 9.48667 477.531 9.13833 477.531 8.735V2.08C477.531 1.67667 477.678 1.32833 477.971 1.035C478.264 0.741665 478.613 0.594998 479.016 0.594998ZM522.57 2.08V17.315C522.57 17.7183 522.424 18.0667 522.13 18.36C521.837 18.6533 521.489 18.8 521.085 18.8H511.24C510.837 18.8 510.489 18.6533 510.195 18.36C509.902 18.0667 509.755 17.7183 509.755 17.315V2.08C509.755 1.67667 509.902 1.32833 510.195 1.035C510.489 0.741665 510.837 0.594998 511.24 0.594998H521.085C521.489 0.594998 521.837 0.741665 522.13 1.035C522.424 1.32833 522.57 1.67667 522.57 2.08ZM539.537 2.025V16.71C540.6 16.3433 541.517 15.7383 542.287 14.895C543.057 14.0517 543.442 13.08 543.442 11.98V2.19C543.442 1.71333 543.588 1.32833 543.882 1.035C544.175 0.741665 544.523 0.594998 544.927 0.594998H552.572C552.975 0.594998 553.323 0.759998 553.617 1.09C553.91 1.42 554.057 1.78666 554.057 2.19V12.09C554.057 17.4433 552.187 21.055 548.447 22.925H556.147C557.54 22.925 558.658 22.5767 559.502 21.88C560.345 21.1467 560.767 20.12 560.767 18.8V2.025C560.767 1.62166 560.913 1.29166 561.207 1.035C561.5 0.741665 561.848 0.594998 562.252 0.594998H570.447C570.85 0.594998 571.198 0.741665 571.492 1.035C571.785 1.32833 571.932 1.67667 571.932 2.08V18.635C571.932 23.1817 570.612 26.6467 567.972 29.03C565.332 31.3767 561.408 32.55 556.202 32.55H544.102C538.895 32.55 534.972 31.3767 532.332 29.03C529.692 26.6467 528.372 23.1817 528.372 18.635V2.08C528.372 1.67667 528.518 1.32833 528.812 1.035C529.105 0.741665 529.453 0.594998 529.857 0.594998H538.052C538.455 0.594998 538.803 0.741665 539.097 1.035C539.39 1.29166 539.537 1.62166 539.537 2.025ZM602.503 15.06V17.535C602.503 21.935 601.109 25.455 598.323 28.095C595.573 30.6983 591.539 32 586.223 32H578.083C577.679 32 577.331 31.8533 577.038 31.56C576.744 31.2667 576.598 30.9183 576.598 30.515V23.31C576.598 22.9067 576.744 22.5583 577.038 22.265C577.331 21.9717 577.679 21.825 578.083 21.825H586.168C587.561 21.825 588.679 21.4767 589.523 20.78C590.366 20.0467 590.788 19.02 590.788 17.7V14.895C590.788 13.575 590.366 12.5667 589.523 11.87C588.679 11.1367 587.561 10.77 586.168 10.77H578.083C577.679 10.77 577.331 10.6233 577.038 10.33C576.744 10.0367 576.598 9.68833 576.598 9.285V2.08C576.598 1.67667 576.744 1.32833 577.038 1.035C577.331 0.741665 577.679 0.594998 578.083 0.594998H586.223C591.539 0.594998 595.573 1.915 598.323 4.555C601.109 7.15833 602.503 10.66 602.503 15.06Z" fill="#4C523B"/>
<path d="M29.6381 62.595H48.7781C54.1681 62.595 58.2198 63.695 60.9331 65.895C63.6831 68.0583 65.0581 71.5967 65.0581 76.51V92.515C65.0581 92.9183 64.9114 93.2667 64.6181 93.56C64.3248 93.8533 63.9764 94 63.5731 94H54.2781C53.8748 94 53.5264 93.8717 53.2331 93.615C52.9398 93.3217 52.7931 92.9733 52.7931 92.57V76.345C52.7931 73.595 51.4364 72.22 48.7231 72.22H44.8731V92.515C44.8731 92.9183 44.7264 93.2667 44.4331 93.56C44.1398 93.8533 43.7914 94 43.3881 94H29.6381C29.2348 94 28.8864 93.8533 28.5931 93.56C28.2998 93.2667 28.1531 92.9183 28.1531 92.515V86.41C28.1531 86.0067 28.2998 85.6583 28.5931 85.365C28.8864 85.0717 29.2348 84.925 29.6381 84.925H32.6081V72.22H29.6381C29.2348 72.22 28.8864 72.0733 28.5931 71.78C28.2998 71.4867 28.1531 71.1383 28.1531 70.735V64.08C28.1531 63.6767 28.2998 63.3283 28.5931 63.035C28.8864 62.7417 29.2348 62.595 29.6381 62.595ZM83.6533 64.08V79.315C83.6533 79.7183 83.5066 80.0667 83.2133 80.36C82.9199 80.6533 82.5716 80.8 82.1683 80.8H72.3233C71.9199 80.8 71.5716 80.6533 71.2783 80.36C70.9849 80.0667 70.8383 79.7183 70.8383 79.315V64.08C70.8383 63.6767 70.9849 63.3283 71.2783 63.035C71.5716 62.7417 71.9199 62.595 72.3233 62.595H82.1683C82.5716 62.595 82.9199 62.7417 83.2133 63.035C83.5066 63.3283 83.6533 63.6767 83.6533 64.08ZM119.814 92.515C119.851 92.625 119.869 92.7717 119.869 92.955C119.869 93.1383 119.723 93.3583 119.429 93.615C119.136 93.8717 118.769 94 118.329 94H108.484C107.824 94 107.329 93.5233 106.999 92.57L105.019 88.225C104.066 88.3717 103.278 88.775 102.654 89.435C102.031 90.0583 101.719 90.8833 101.719 91.91V92.405C101.719 92.8817 101.573 93.2667 101.279 93.56C100.986 93.8533 100.638 94 100.234 94H90.3895C89.9861 94 89.6378 93.835 89.3445 93.505C89.0511 93.175 88.9045 92.8083 88.9045 92.405V92.13C88.9045 88.7567 90.0961 85.805 92.4795 83.275C94.8995 80.745 97.8878 79.2233 101.444 78.71V76.29C101.444 74.86 101.096 73.7417 100.399 72.935C99.7028 72.0917 98.6945 71.67 97.3745 71.67H94.5695C94.1661 71.67 93.8178 71.5233 93.5245 71.23C93.2311 70.9367 93.0845 70.5883 93.0845 70.185V63.53C93.0845 63.1267 93.2311 62.7783 93.5245 62.485C93.8178 62.1917 94.1661 62.045 94.5695 62.045H97.4295C102.929 62.045 107.109 63.1633 109.969 65.4C112.866 67.6367 114.314 71.3217 114.314 76.455V80.14L119.814 92.515ZM137.65 64.08V92.515C137.65 92.9183 137.503 93.2667 137.21 93.56C136.917 93.8533 136.568 94 136.165 94H126.32C125.917 94 125.568 93.8533 125.275 93.56C124.982 93.2667 124.835 92.9183 124.835 92.515V64.08C124.835 63.6767 124.982 63.3283 125.275 63.035C125.568 62.7417 125.917 62.595 126.32 62.595H136.165C136.568 62.595 136.917 62.7417 137.21 63.035C137.503 63.3283 137.65 63.6767 137.65 64.08ZM157.657 80.25V72.77H144.347C143.944 72.77 143.596 72.6233 143.302 72.33C143.009 72.0367 142.862 71.6883 142.862 71.285V56.49C142.862 56.0867 143.009 55.7383 143.302 55.445C143.596 55.1517 143.944 55.005 144.347 55.005H152.762C153.166 55.005 153.514 55.1517 153.807 55.445C154.101 55.7383 154.247 56.0867 154.247 56.49V62.595H168.932C169.336 62.595 169.684 62.7417 169.977 63.035C170.271 63.3283 170.417 63.6767 170.417 64.08V80.085C170.417 84.4117 168.987 87.9133 166.127 90.59C163.267 93.23 159.289 94.55 154.192 94.55H152.377C151.974 94.55 151.626 94.4033 151.332 94.11C151.039 93.8167 150.892 93.4683 150.892 93.065V85.86C150.892 85.4567 151.039 85.1083 151.332 84.815C151.626 84.5217 151.974 84.375 152.377 84.375H154.137C155.164 84.375 156.007 84.045 156.667 83.385C157.327 82.725 157.657 81.68 157.657 80.25ZM189.855 64.08V92.515C189.855 92.9183 189.708 93.2667 189.415 93.56C189.121 93.8533 188.773 94 188.37 94H178.525C178.121 94 177.773 93.8533 177.48 93.56C177.186 93.2667 177.04 92.9183 177.04 92.515V64.08C177.04 63.6767 177.186 63.3283 177.48 63.035C177.773 62.7417 178.121 62.595 178.525 62.595H188.37C188.773 62.595 189.121 62.7417 189.415 63.035C189.708 63.3283 189.855 63.6767 189.855 64.08ZM214.867 94H196.827C196.424 94 196.076 93.8533 195.782 93.56C195.489 93.2667 195.342 92.9183 195.342 92.515V85.31C195.342 84.9067 195.489 84.5583 195.782 84.265C196.076 83.9717 196.424 83.825 196.827 83.825H203.537V76.345C203.537 74.8783 203.207 73.8333 202.547 73.21C201.887 72.55 200.861 72.22 199.467 72.22H196.882C196.479 72.22 196.131 72.0733 195.837 71.78C195.544 71.4867 195.397 71.1383 195.397 70.735V63.53C195.397 63.1267 195.544 62.7783 195.837 62.485C196.131 62.1917 196.479 62.045 196.882 62.045H199.522C205.206 62.045 209.422 63.1633 212.172 65.4C214.959 67.6367 216.352 71.34 216.352 76.51V92.515C216.352 92.9183 216.206 93.2667 215.912 93.56C215.619 93.8533 215.271 94 214.867 94ZM246.941 77.06V79.535C246.941 83.935 245.547 87.455 242.761 90.095C240.011 92.6983 235.977 94 230.661 94H222.521C222.117 94 221.769 93.8533 221.476 93.56C221.182 93.2667 221.036 92.9183 221.036 92.515V85.31C221.036 84.9067 221.182 84.5583 221.476 84.265C221.769 83.9717 222.117 83.825 222.521 83.825H230.606C231.999 83.825 233.117 83.4767 233.961 82.78C234.804 82.0467 235.226 81.02 235.226 79.7V76.895C235.226 75.575 234.804 74.5667 233.961 73.87C233.117 73.1367 231.999 72.77 230.606 72.77H222.521C222.117 72.77 221.769 72.6233 221.476 72.33C221.182 72.0367 221.036 71.6883 221.036 71.285V64.08C221.036 63.6767 221.182 63.3283 221.476 63.035C221.769 62.7417 222.117 62.595 222.521 62.595H230.661C235.977 62.595 240.011 63.915 242.761 66.555C245.547 69.1583 246.941 72.66 246.941 77.06ZM268.631 62.045H268.796C273.966 62.045 277.962 63.2917 280.786 65.785C283.609 68.2783 285.021 71.67 285.021 75.96V80.47C285.021 84.7967 283.591 88.225 280.731 90.755C277.907 93.285 273.874 94.55 268.631 94.55C263.424 94.55 259.427 93.285 256.641 90.755C253.854 88.225 252.461 84.7233 252.461 80.25V64.08C252.461 63.6767 252.607 63.3283 252.901 63.035C253.194 62.7417 253.542 62.595 253.946 62.595H262.636C263.039 62.595 263.387 62.7417 263.681 63.035C263.974 63.3283 264.121 63.6767 264.121 64.08V80.415C264.121 83.055 265.661 84.375 268.741 84.375C271.821 84.375 273.361 83.0733 273.361 80.47V75.795C273.361 74.475 272.939 73.4667 272.096 72.77C271.252 72.0367 270.134 71.67 268.741 71.67H268.631C268.227 71.67 267.879 71.5233 267.586 71.23C267.292 70.9367 267.146 70.5883 267.146 70.185V63.53C267.146 63.1267 267.292 62.7783 267.586 62.485C267.879 62.1917 268.227 62.045 268.631 62.045ZM308.226 62.595H327.366C332.756 62.595 336.808 63.695 339.521 65.895C342.271 68.0583 343.646 71.5967 343.646 76.51V92.515C343.646 92.9183 343.499 93.2667 343.206 93.56C342.913 93.8533 342.564 94 342.161 94H332.866C332.463 94 332.114 93.8717 331.821 93.615C331.528 93.3217 331.381 92.9733 331.381 92.57V76.345C331.381 73.595 330.024 72.22 327.311 72.22H323.461V92.515C323.461 92.9183 323.314 93.2667 323.021 93.56C322.728 93.8533 322.379 94 321.976 94H308.226C307.823 94 307.474 93.8533 307.181 93.56C306.888 93.2667 306.741 92.9183 306.741 92.515V86.41C306.741 86.0067 306.888 85.6583 307.181 85.365C307.474 85.0717 307.823 84.925 308.226 84.925H311.196V72.22H308.226C307.823 72.22 307.474 72.0733 307.181 71.78C306.888 71.4867 306.741 71.1383 306.741 70.735V64.08C306.741 63.6767 306.888 63.3283 307.181 63.035C307.474 62.7417 307.823 62.595 308.226 62.595ZM363.066 64.08V92.515C363.066 92.9183 362.919 93.2667 362.626 93.56C362.333 93.8533 361.984 94 361.581 94H351.736C351.333 94 350.984 93.8533 350.691 93.56C350.398 93.2667 350.251 92.9183 350.251 92.515V64.08C350.251 63.6767 350.398 63.3283 350.691 63.035C350.984 62.7417 351.333 62.595 351.736 62.595H361.581C361.984 62.595 362.333 62.7417 362.626 63.035C362.919 63.3283 363.066 63.6767 363.066 64.08ZM369.764 62.595H379.004C384.504 62.595 388.592 63.64 391.269 65.73C393.945 67.7833 395.284 71.3767 395.284 76.51V92.515C395.284 92.9183 395.137 93.2667 394.844 93.56C394.55 93.8533 394.202 94 393.799 94H384.504C384.1 94 383.752 93.8717 383.459 93.615C383.165 93.3217 383.019 92.9733 383.019 92.57V76.345C383.019 73.595 381.662 72.22 378.949 72.22H369.764C369.36 72.22 369.012 72.0733 368.719 71.78C368.425 71.4867 368.279 71.1383 368.279 70.735V64.08C368.279 63.6767 368.425 63.3283 368.719 63.035C369.012 62.7417 369.36 62.595 369.764 62.595ZM413.318 64.08V79.315C413.318 79.7183 413.171 80.0667 412.878 80.36C412.585 80.6533 412.236 80.8 411.833 80.8H401.988C401.585 80.8 401.236 80.6533 400.943 80.36C400.65 80.0667 400.503 79.7183 400.503 79.315V64.08C400.503 63.6767 400.65 63.3283 400.943 63.035C401.236 62.7417 401.585 62.595 401.988 62.595H411.833C412.236 62.595 412.585 62.7417 412.878 63.035C413.171 63.3283 413.318 63.6767 413.318 64.08ZM430.284 64.025V78.71C431.348 78.3433 432.264 77.7383 433.034 76.895C433.804 76.0517 434.189 75.08 434.189 73.98V64.19C434.189 63.7133 434.336 63.3283 434.629 63.035C434.923 62.7417 435.271 62.595 435.674 62.595H443.319C443.723 62.595 444.071 62.76 444.364 63.09C444.658 63.42 444.804 63.7867 444.804 64.19V74.09C444.804 79.4433 442.934 83.055 439.194 84.925H446.894C448.288 84.925 449.406 84.5767 450.249 83.88C451.093 83.1467 451.514 82.12 451.514 80.8V64.025C451.514 63.6217 451.661 63.2917 451.954 63.035C452.248 62.7417 452.596 62.595 452.999 62.595H461.194C461.598 62.595 461.946 62.7417 462.239 63.035C462.533 63.3283 462.679 63.6767 462.679 64.08V80.635C462.679 85.1817 461.359 88.6467 458.719 91.03C456.079 93.3767 452.156 94.55 446.949 94.55H434.849C429.643 94.55 425.719 93.3767 423.079 91.03C420.439 88.6467 419.119 85.1817 419.119 80.635V64.08C419.119 63.6767 419.266 63.3283 419.559 63.035C419.853 62.7417 420.201 62.595 420.604 62.595H428.799C429.203 62.595 429.551 62.7417 429.844 63.035C430.138 63.2917 430.284 63.6217 430.284 64.025ZM493.25 77.06V79.535C493.25 83.935 491.857 87.455 489.07 90.095C486.32 92.6983 482.287 94 476.97 94H468.83C468.427 94 468.079 93.8533 467.785 93.56C467.492 93.2667 467.345 92.9183 467.345 92.515V85.31C467.345 84.9067 467.492 84.5583 467.785 84.265C468.079 83.9717 468.427 83.825 468.83 83.825H476.915C478.309 83.825 479.427 83.4767 480.27 82.78C481.114 82.0467 481.535 81.02 481.535 79.7V76.895C481.535 75.575 481.114 74.5667 480.27 73.87C479.427 73.1367 478.309 72.77 476.915 72.77H468.83C468.427 72.77 468.079 72.6233 467.785 72.33C467.492 72.0367 467.345 71.6883 467.345 71.285V64.08C467.345 63.6767 467.492 63.3283 467.785 63.035C468.079 62.7417 468.427 62.595 468.83 62.595H476.97C482.287 62.595 486.32 63.915 489.07 66.555C491.857 69.1583 493.25 72.66 493.25 77.06ZM512.191 80.25V72.77H498.881C498.477 72.77 498.129 72.6233 497.836 72.33C497.542 72.0367 497.396 71.6883 497.396 71.285V56.49C497.396 56.0867 497.542 55.7383 497.836 55.445C498.129 55.1517 498.477 55.005 498.881 55.005H507.296C507.699 55.005 508.047 55.1517 508.341 55.445C508.634 55.7383 508.781 56.0867 508.781 56.49V62.595H523.466C523.869 62.595 524.217 62.7417 524.511 63.035C524.804 63.3283 524.951 63.6767 524.951 64.08V80.085C524.951 84.4117 523.521 87.9133 520.661 90.59C517.801 93.23 513.822 94.55 508.726 94.55H506.911C506.507 94.55 506.159 94.4033 505.866 94.11C505.572 93.8167 505.426 93.4683 505.426 93.065V85.86C505.426 85.4567 505.572 85.1083 505.866 84.815C506.159 84.5217 506.507 84.375 506.911 84.375H508.671C509.697 84.375 510.541 84.045 511.201 83.385C511.861 82.725 512.191 81.68 512.191 80.25Z" fill="#225EAC"/>
</svg>
